<svg width="21" height="21" viewBox="0 0 21 21" fill="none" xmlns="http://www.w3.org/2000/svg">
<g id="apple">
<path id="bg" d="M19.1287 10.9346C19.1287 15.7646 15.213 19.6846 10.3787 19.6846C5.54429 19.6846 1.62866 15.7646 1.62866 10.9346C1.62866 6.10019 5.54429 2.18457 10.3787 2.18457C15.213 2.18457 19.1287 6.10019 19.1287 10.9346Z" fill="#283544"/>
<path id="apple_2" d="M14.48 8.72044C14.4322 8.74829 13.2956 9.33612 13.2956 10.6395C13.3492 12.1259 14.73 12.6471 14.7537 12.6471C14.73 12.675 14.5452 13.3572 13.9978 14.0724C13.5634 14.6885 13.0813 15.3096 12.3492 15.3096C11.6527 15.3096 11.4027 14.899 10.5991 14.899C9.73618 14.899 9.492 15.3096 8.83129 15.3096C8.09914 15.3096 7.58128 14.6552 7.12321 14.0449C6.5281 13.2462 6.02227 11.9928 6.00442 10.7892C5.99238 10.1515 6.12359 9.52459 6.45667 8.99211C6.92678 8.24873 7.76607 7.7441 8.68261 7.72745C9.38486 7.70539 10.0099 8.17674 10.4384 8.17674C10.8491 8.17674 11.617 7.72745 12.4858 7.72745C12.8608 7.72782 13.8608 7.83308 14.48 8.72044ZM10.379 7.60012C10.254 7.01772 10.5991 6.43531 10.9206 6.0638C11.3313 5.61452 11.98 5.30957 12.5394 5.30957C12.5751 5.89198 12.3488 6.46317 11.9443 6.87917C11.5813 7.32845 10.9563 7.66668 10.379 7.60012Z" fill="white"/>
</g>
</svg>
