<svg width="12" height="11" viewBox="0 0 12 11" fill="none" xmlns="http://www.w3.org/2000/svg">
<path d="M10.8474 0.49707H1.90991C1.32983 0.49707 0.878662 0.969727 0.878662 1.52832V2.90332C0.878662 3.09668 1.02905 3.24707 1.22241 3.24707H1.56616V8.74707C1.56616 9.52051 2.16772 10.1221 2.94116 10.1221H9.81616C10.5681 10.1221 11.1912 9.52051 11.1912 8.74707V3.24707H11.5349C11.7068 3.24707 11.8787 3.09668 11.8787 2.90332V1.52832C11.8787 0.969727 11.406 0.49707 10.8474 0.49707ZM10.5037 8.74707C10.5037 9.13379 10.1814 9.43457 9.81616 9.43457H2.94116C2.55444 9.43457 2.25366 9.13379 2.25366 8.74707V3.24707H10.5037V8.74707ZM11.1912 2.55957H1.56616V1.52832C1.56616 1.35645 1.71655 1.18457 1.90991 1.18457H10.8474C11.0193 1.18457 11.1912 1.35645 11.1912 1.52832V2.55957ZM4.65991 5.30957H8.09741C8.26929 5.30957 8.44116 5.15918 8.44116 4.96582C8.44116 4.79395 8.26929 4.62207 8.09741 4.62207H4.65991C4.46655 4.62207 4.31616 4.79395 4.31616 4.96582C4.31616 5.15918 4.46655 5.30957 4.65991 5.30957Z" fill="#383838"/>
</svg>
