<svg width="12" height="12" viewBox="0 0 12 12" fill="none" xmlns="http://www.w3.org/2000/svg">
<path d="M5.87866 0.947754C2.82788 0.947754 0.378662 3.41846 0.378662 6.44775C0.378662 9.49854 2.82788 11.9478 5.87866 11.9478C8.90796 11.9478 11.3787 9.49854 11.3787 6.44775C11.3787 3.41846 8.90796 0.947754 5.87866 0.947754ZM5.87866 3.69775C6.2439 3.69775 6.56616 4.02002 6.56616 4.38525C6.56616 4.77197 6.2439 5.07275 5.87866 5.07275C5.49194 5.07275 5.19116 4.77197 5.19116 4.38525C5.19116 4.02002 5.49194 3.69775 5.87866 3.69775ZM6.73804 9.19775H5.01929C4.71851 9.19775 4.50366 8.98291 4.50366 8.68213C4.50366 8.40283 4.71851 8.1665 5.01929 8.1665H5.36304V6.7915H5.19116C4.89038 6.7915 4.67554 6.57666 4.67554 6.27588C4.67554 5.99658 4.89038 5.76025 5.19116 5.76025H5.87866C6.15796 5.76025 6.39429 5.99658 6.39429 6.27588V8.1665H6.73804C7.01733 8.1665 7.25366 8.40283 7.25366 8.68213C7.25366 8.98291 7.01733 9.19775 6.73804 9.19775Z" fill="white"/>
</svg>
