<svg width="12" height="12" viewBox="0 0 12 12" fill="none" xmlns="http://www.w3.org/2000/svg">
<path d="M8.44116 6.30957C8.44116 7.44824 7.51733 8.37207 6.37866 8.37207C5.21851 8.37207 4.31616 7.44824 4.31616 6.30957C4.31616 5.1709 5.21851 4.24707 6.37866 4.24707C7.51733 4.24707 8.44116 5.1709 8.44116 6.30957ZM6.37866 4.93457C5.60522 4.93457 5.00366 5.55762 5.00366 6.30957C5.00366 7.08301 5.60522 7.68457 6.37866 7.68457C7.13062 7.68457 7.75366 7.08301 7.75366 6.30957C7.75366 5.55762 7.13062 4.93457 6.37866 4.93457ZM11.8787 6.30957C11.8787 9.36035 9.40796 11.8096 6.37866 11.8096C3.32788 11.8096 0.878662 9.36035 0.878662 6.30957C0.878662 3.28027 3.32788 0.80957 6.37866 0.80957C9.40796 0.80957 11.8787 3.28027 11.8787 6.30957ZM6.37866 1.49707C3.7146 1.49707 1.56616 3.66699 1.56616 6.30957C1.56616 8.97363 3.7146 11.1221 6.37866 11.1221C9.02124 11.1221 11.1912 8.97363 11.1912 6.30957C11.1912 3.66699 9.02124 1.49707 6.37866 1.49707Z" fill="#383838"/>
</svg>
