<svg width="25" height="25" viewBox="0 0 25 25" fill="none" xmlns="http://www.w3.org/2000/svg">
<g id="Group">
<rect id="Rectangle" x="21.6287" y="21.9346" width="18" height="18" rx="5" transform="rotate(-180 21.6287 21.9346)" stroke="#98A2B3" stroke-width="1.5" stroke-linecap="round" stroke-linejoin="round"/>
<path id="Path" d="M3.98901 18.802L8.27069 14.5204C8.64577 14.1453 9.15448 13.9346 9.68491 13.9346C10.2153 13.9346 10.7241 14.1453 11.0991 14.5204L18.2459 21.6672" stroke="#98A2B3" stroke-width="1.5" stroke-linecap="round" stroke-linejoin="round"/>
<path id="Path_2" d="M21.6286 15.6401L18.5089 12.5204C18.1338 12.1453 17.6251 11.9346 17.0946 11.9346C16.5642 11.9346 16.0555 12.1453 15.6804 12.5204L12.3916 15.8091" stroke="#98A2B3" stroke-width="1.5" stroke-linecap="round" stroke-linejoin="round"/>
<path id="Path_3" d="M9.53996 9.34647L9.54018 9.34626C9.58893 9.29984 9.66608 9.30171 9.71253 9.35043C9.75898 9.39915 9.75716 9.4763 9.70846 9.52278C9.65977 9.56926 9.58262 9.56749 9.53611 9.51882C9.4896 9.47016 9.49133 9.39301 9.53996 9.34647" stroke="#98A2B3" stroke-width="1.5" stroke-linecap="round" stroke-linejoin="round"/>
</g>
</svg>
