<svg width="16" height="4" viewBox="0 0 16 4" fill="none" xmlns="http://www.w3.org/2000/svg">
<path d="M7.87866 0.518555C8.54272 0.518555 9.12866 1.10449 9.12866 1.76855C9.12866 2.47168 8.54272 3.01855 7.87866 3.01855C7.17554 3.01855 6.62866 2.47168 6.62866 1.76855C6.62866 1.10449 7.17554 0.518555 7.87866 0.518555ZM1.62866 0.518555C2.29272 0.518555 2.87866 1.10449 2.87866 1.76855C2.87866 2.47168 2.29272 3.01855 1.62866 3.01855C0.925537 3.01855 0.378662 2.47168 0.378662 1.76855C0.378662 1.10449 0.925537 0.518555 1.62866 0.518555ZM14.1287 0.518555C14.7927 0.518555 15.3787 1.10449 15.3787 1.76855C15.3787 2.47168 14.7927 3.01855 14.1287 3.01855C13.4255 3.01855 12.8787 2.47168 12.8787 1.76855C12.8787 1.10449 13.4255 0.518555 14.1287 0.518555Z" fill="#383838"/>
</svg>
