<svg width="41" height="41" viewBox="0 0 41 41" fill="none" xmlns="http://www.w3.org/2000/svg">
<path d="M4.03125 4.76392C4.03125 2.55478 5.82211 0.763916 8.03125 0.763916H24.0312L36.0312 12.7639V36.7639C36.0312 38.9731 34.2404 40.7639 32.0312 40.7639H8.03125C5.82211 40.7639 4.03125 38.9731 4.03125 36.7639V4.76392Z" fill="#155EEF"/>
<path opacity="0.3" d="M24.0312 0.763916L36.0312 12.7639H28.0312C25.8221 12.7639 24.0312 10.9731 24.0312 8.76392V0.763916Z" fill="white"/>
<path d="M14.984 31.7639H13.823L12.167 26.4809V31.7639H11.051V25.2389H12.824L14.408 30.4409L15.983 25.2389H17.756V31.7639H16.64V26.4809L14.984 31.7639ZM19.0667 25.2389H21.2177C22.6487 25.2389 23.9897 25.4639 23.9897 27.2909C23.9897 28.9379 22.7747 29.2979 21.2357 29.2979H20.2097V31.7639H19.0667V25.2389ZM21.2177 26.1569H20.2097V28.3619H21.2717C22.1357 28.3619 22.8017 28.2359 22.8017 27.2999C22.8017 26.2469 22.0187 26.1569 21.2177 26.1569ZM27.3814 26.6339L25.3294 29.3069H27.3814V26.6339ZM29.6044 29.3069V30.2339H28.4524V31.7639H27.3814V30.2339H24.1594V29.3429L27.3904 25.2389H28.4524V29.3069H29.6044Z" fill="white"/>
</svg>
