<svg width="41" height="41" viewBox="0 0 41 41" fill="none" xmlns="http://www.w3.org/2000/svg">
<path d="M4.03125 4.76392C4.03125 2.55478 5.82211 0.763916 8.03125 0.763916H24.0312L36.0312 12.7639V36.7639C36.0312 38.9731 34.2404 40.7639 32.0312 40.7639H8.03125C5.82211 40.7639 4.03125 38.9731 4.03125 36.7639V4.76392Z" fill="#D92D20"/>
<path opacity="0.3" d="M24.0312 0.763916L36.0312 12.7639H28.0312C25.8221 12.7639 24.0312 10.9731 24.0312 8.76392V0.763916Z" fill="white"/>
<path d="M12.0047 25.2389H14.1557C15.5867 25.2389 16.9277 25.4639 16.9277 27.2909C16.9277 28.9379 15.7127 29.2979 14.1737 29.2979H13.1477V31.7639H12.0047V25.2389ZM14.1557 26.1569H13.1477V28.3619H14.2097C15.0737 28.3619 15.7397 28.2359 15.7397 27.2999C15.7397 26.2469 14.9567 26.1569 14.1557 26.1569ZM21.9214 28.4969C21.9214 26.4359 20.6614 26.1569 19.4104 26.1569H18.8254V30.8459H19.4104C20.6614 30.8459 21.9214 30.5579 21.9214 28.4969ZM17.6824 25.2389H19.4644C21.5254 25.2389 23.1094 25.9499 23.1094 28.4969C23.1094 31.0439 21.5254 31.7639 19.4644 31.7639H17.6824V25.2389ZM24.1511 31.7639V25.2389H28.7051V26.1929H25.2941V27.9389H28.5071V28.8839H25.2941V31.7639H24.1511Z" fill="white"/>
</svg>
