<svg width="41" height="41" viewBox="0 0 41 41" fill="none" xmlns="http://www.w3.org/2000/svg">
<path d="M4.03125 4.76392C4.03125 2.55478 5.82211 0.763916 8.03125 0.763916H24.0312L36.0312 12.7639V36.7639C36.0312 38.9731 34.2404 40.7639 32.0312 40.7639H8.03125C5.82211 40.7639 4.03125 38.9731 4.03125 36.7639V4.76392Z" fill="#7F56D9"/>
<path opacity="0.3" d="M24.0312 0.763916L36.0312 12.7639H28.0312C25.8221 12.7639 24.0312 10.9731 24.0312 8.76392V0.763916Z" fill="white"/>
<path d="M13.4811 31.8809C12.0411 31.8809 11.2401 30.9719 11.2401 29.5589H12.3741C12.3741 30.4679 12.7701 30.9449 13.4811 30.9449C14.1741 30.9449 14.5701 30.4679 14.5701 29.5589V25.2389H15.7131V29.5589C15.7131 30.9719 14.9121 31.8809 13.4811 31.8809ZM17.0276 25.2389H19.1786C20.6096 25.2389 21.9506 25.4639 21.9506 27.2909C21.9506 28.9379 20.7356 29.2979 19.1966 29.2979H18.1706V31.7639H17.0276V25.2389ZM19.1786 26.1569H18.1706V28.3619H19.2326C20.0966 28.3619 20.7626 28.2359 20.7626 27.2999C20.7626 26.2469 19.9796 26.1569 19.1786 26.1569ZM25.5763 25.1219C27.0433 25.1219 28.0513 25.9139 28.3303 27.3089H27.2413C27.0253 26.5079 26.4133 26.0579 25.5493 26.0579C24.4333 26.0579 23.6233 26.8769 23.6233 28.4789C23.6233 30.0629 24.3883 30.9449 25.5403 30.9449C26.3143 30.9449 27.2863 30.6029 27.2863 29.4419V29.3159H25.6213V28.3529H28.3483V31.7639H27.4483L27.4123 30.9809C27.0253 31.5569 26.3143 31.8809 25.4143 31.8809C23.5603 31.8809 22.4443 30.5309 22.4443 28.4789C22.4443 26.4539 23.6323 25.1219 25.5763 25.1219Z" fill="white"/>
</svg>
