<svg width="33" height="33" viewBox="0 0 33 33" fill="none" xmlns="http://www.w3.org/2000/svg">
<path d="M30.6287 16.9346C30.6287 18.7731 30.2665 20.5936 29.563 22.2921C28.8594 23.9907 27.8282 25.534 26.5282 26.8341C25.2281 28.1341 23.6848 29.1653 21.9862 29.8689C20.2877 30.5725 18.4672 30.9346 16.6287 30.9346C14.7902 30.9346 12.9697 30.5724 11.2711 29.8689C9.57253 29.1653 8.02919 28.1341 6.72917 26.8341C5.42915 25.534 4.39791 23.9907 3.69435 22.2921C2.99078 20.5936 2.62866 18.7731 2.62866 16.9346C2.62866 15.0961 2.99078 13.2756 3.69435 11.577C4.39792 9.87844 5.42915 8.33509 6.72917 7.03507C8.02919 5.73505 9.57254 4.70382 11.2711 4.00025C12.9697 3.29669 14.7902 2.93457 16.6287 2.93457C18.4672 2.93457 20.2877 3.29669 21.9862 4.00026C23.6848 4.70383 25.2281 5.73506 26.5282 7.03508C27.8282 8.3351 28.8594 9.87845 29.563 11.577C30.2665 13.2756 30.6287 15.0961 30.6287 16.9346L30.6287 16.9346Z" stroke="#F2F4F7" stroke-width="4" stroke-linecap="round" stroke-linejoin="round"/>
<path d="M16.6287 2.93457C19.2106 2.93457 21.7422 3.64856 23.9436 4.99761C26.1451 6.34665 27.9306 8.2782 29.1028 10.5787C30.2749 12.8792 30.7881 15.459 30.5855 18.033C30.3829 20.607 29.4725 23.0748 27.9549 25.1636C26.4373 27.2524 24.3716 28.8808 21.9862 29.8689C19.6009 30.8569 16.9887 31.1661 14.4386 30.7622C11.8885 30.3583 9.49969 29.2571 7.53639 27.5803C5.57309 25.9034 4.11173 23.7164 3.31387 21.2608" stroke="#1570EF" stroke-width="4" stroke-linecap="round" stroke-linejoin="round"/>
</svg>
