<svg width="18" height="13" viewBox="0 0 18 13" fill="none" xmlns="http://www.w3.org/2000/svg">
<g id="rm_logo_3sausages_svg">
<path id="WMG_Pills_SVG" d="M15.6089 7.36887C14.9211 7.36887 13.9265 7.05833 13.4463 5.95093L12.7081 4.15121C12.0554 2.48985 13.3252 0.93457 14.8026 0.93457C15.4888 0.93457 16.4849 1.24511 16.9646 2.352L17.7033 4.15223C18.3555 5.81308 17.0842 7.36887 15.6089 7.36887ZM10.8874 2.352L13.9087 9.71896C14.5614 11.3783 13.2906 12.9346 11.8148 12.9346C11.1275 12.9346 10.1319 12.623 9.6517 11.5171L6.63037 4.15121C5.9787 2.48985 7.24949 0.93457 8.7248 0.93457C9.41209 0.93457 10.4072 1.24511 10.8874 2.352ZM4.81117 2.352L7.83249 9.71896C8.48468 11.3783 7.21388 12.9346 5.73756 12.9346C5.05129 12.9346 4.0552 12.623 3.57547 11.5171L0.554149 4.15121C-0.0980375 2.48985 1.17174 0.93457 2.64807 0.93457C3.33586 0.93457 4.33093 1.24511 4.81117 2.352Z" fill="white"/>
</g>
</svg>
