<svg width="17" height="14" viewBox="0 0 17 14" fill="none" xmlns="http://www.w3.org/2000/svg">
<path d="M12.1287 2.63525H9.28491V0.604004C9.28491 0.400879 9.08179 0.197754 8.87866 0.197754C8.65015 0.197754 8.47241 0.400879 8.47241 0.604004V2.63525H5.62866C4.25757 2.63525 3.19116 3.72705 3.19116 5.07275V10.7603C3.19116 12.1313 4.25757 13.1978 5.62866 13.1978H12.1287C13.4744 13.1978 14.5662 12.1313 14.5662 10.7603V5.07275C14.5662 3.72705 13.4744 2.63525 12.1287 2.63525ZM13.7537 9.94775H13.3474C13.1189 9.94775 12.9412 10.1509 12.9412 10.354C12.9412 10.5825 13.1189 10.7603 13.3474 10.7603H13.7537C13.7537 11.6743 13.0173 12.3853 12.1287 12.3853H5.62866C4.7146 12.3853 4.00366 11.6743 4.00366 10.7603H4.40991C4.61304 10.7603 4.81616 10.5825 4.81616 10.354C4.81616 10.1509 4.61304 9.94775 4.40991 9.94775H4.00366V5.07275C4.00366 4.18408 4.7146 3.44775 5.62866 3.44775H12.1287C13.0173 3.44775 13.7537 4.18408 13.7537 5.07275V9.94775ZM1.66772 6.01221C1.7439 5.93604 1.84546 5.88525 1.94702 5.88525C2.17554 5.88525 2.35327 5.70752 2.37866 5.479C2.37866 5.27588 2.17554 5.07275 1.97241 5.07275C1.64233 5.07275 1.33765 5.19971 1.10913 5.42822C0.880615 5.65674 0.753662 5.98682 0.753662 6.2915V9.5415C0.753662 10.2271 1.28687 10.7603 1.94702 10.7603C2.17554 10.7603 2.35327 10.5825 2.35327 10.354C2.35327 10.1509 2.17554 9.94775 1.94702 9.94775C1.7439 9.94775 1.56616 9.77002 1.56616 9.5415V6.2915C1.56616 6.18994 1.59155 6.08838 1.66772 6.01221ZM15.7849 5.07275C15.5564 5.07275 15.3787 5.27588 15.3787 5.479C15.3787 5.70752 15.5564 5.88525 15.7849 5.88525C15.988 5.88525 16.1912 6.08838 16.1912 6.2915V9.5415C16.1912 9.64307 16.1404 9.74463 16.0642 9.8208C15.988 9.92236 15.8865 9.94775 15.7849 9.94775C15.5564 9.94775 15.3787 10.1509 15.3787 10.354C15.3533 10.5825 15.5564 10.7603 15.7595 10.7603C16.0896 10.7603 16.3943 10.6587 16.6228 10.4302C16.8513 10.1763 17.0037 9.87158 17.0037 9.5415V6.2915C17.0037 5.63135 16.4451 5.07275 15.7849 5.07275ZM6.84741 9.94775H6.03491C5.8064 9.94775 5.62866 10.1509 5.62866 10.354C5.62866 10.5825 5.8064 10.7603 6.03491 10.7603H6.84741C7.05054 10.7603 7.25366 10.5825 7.25366 10.354C7.25366 10.1509 7.05054 9.94775 6.84741 9.94775ZM9.28491 9.94775H8.47241C8.2439 9.94775 8.06616 10.1509 8.06616 10.354C8.06616 10.5825 8.2439 10.7603 8.47241 10.7603H9.28491C9.48804 10.7603 9.69116 10.5825 9.69116 10.354C9.69116 10.1509 9.48804 9.94775 9.28491 9.94775ZM11.7224 9.94775H10.9099C10.6814 9.94775 10.5037 10.1509 10.5037 10.354C10.5037 10.5825 10.6814 10.7603 10.9099 10.7603H11.7224C11.9255 10.7603 12.1287 10.5825 12.1287 10.354C12.1287 10.1509 11.9255 9.94775 11.7224 9.94775ZM6.44116 5.07275C5.5271 5.07275 4.81616 5.80908 4.81616 6.69775C4.81616 7.61182 5.5271 8.32275 6.44116 8.32275C7.32983 8.32275 8.06616 7.61182 8.06616 6.69775C8.06616 5.80908 7.32983 5.07275 6.44116 5.07275ZM6.44116 7.51025C5.98413 7.51025 5.62866 7.15479 5.62866 6.69775C5.62866 6.26611 5.98413 5.88525 6.44116 5.88525C6.8728 5.88525 7.25366 6.26611 7.25366 6.69775C7.25366 7.15479 6.8728 7.51025 6.44116 7.51025ZM11.3162 5.07275C10.4021 5.07275 9.69116 5.80908 9.69116 6.69775C9.69116 7.61182 10.4021 8.32275 11.3162 8.32275C12.2048 8.32275 12.9412 7.61182 12.9412 6.69775C12.9412 5.80908 12.2048 5.07275 11.3162 5.07275ZM11.3162 7.51025C10.8591 7.51025 10.5037 7.15479 10.5037 6.69775C10.5037 6.26611 10.8591 5.88525 11.3162 5.88525C11.7478 5.88525 12.1287 6.26611 12.1287 6.69775C12.1287 7.15479 11.7478 7.51025 11.3162 7.51025Z" fill="white"/>
</svg>
