<svg width="21" height="21" viewBox="0 0 21 21" fill="none" xmlns="http://www.w3.org/2000/svg">
<g id="spotify">
<circle id="bg" cx="10.3787" cy="10.9346" r="8.75" fill="#1ED760"/>
<path id="spotify_2" d="M14.3564 14.4489C14.2069 14.6861 13.888 14.7525 13.6388 14.6102C11.6755 13.4717 9.21389 13.2155 6.30381 13.8417C6.02476 13.8986 5.74571 13.7373 5.68591 13.4717C5.62612 13.206 5.79554 12.9403 6.07459 12.8834C9.25376 12.1908 11.9845 12.4849 14.177 13.7658C14.4261 13.9081 14.5059 14.2117 14.3564 14.4489ZM15.3729 12.2856C15.1836 12.5798 14.7849 12.6652 14.476 12.4944C12.2336 11.1755 8.81525 10.796 6.16428 11.5646C5.81547 11.6594 5.45669 11.4792 5.35703 11.1566C5.25737 10.8245 5.44673 10.4829 5.79554 10.388C8.82522 9.51514 12.5924 9.93262 15.1736 11.4412C15.4626 11.612 15.5623 11.9915 15.3729 12.2856ZM15.4626 10.0275C12.7718 8.50941 8.33688 8.36709 5.76564 9.10716C5.35703 9.2305 4.91853 9.01228 4.78897 8.61378C4.65941 8.22477 4.89859 7.8073 5.3072 7.68395C8.25715 6.83003 13.1604 7.00082 16.2499 8.74661C16.6187 8.95535 16.7383 9.41078 16.519 9.76183C16.3097 10.1224 15.8314 10.2457 15.4626 10.0275Z" fill="white"/>
</g>
</svg>
